<svg xmlns="http://www.w3.org/2000/svg" width="128" height="128" viewBox="0 0 128 128">
  <rect x="10" y="10" width="108" height="108" rx="24" fill="#0969DA"/>
  <path d="M42 38c-10 0-18 8-18 18v4c0 6-4 10-10 10 6 0 10 4 10 10v4c0 10 8 18 18 18"
        fill="none" stroke="#FFFFFF" stroke-width="10" stroke-linecap="round"/>
  <path d="M86 38c10 0 18 8 18 18v4c0 6 4 10 10 10-6 0-10 4-10 10v4c0 10-8 18-18 18"
        fill="none" stroke="#FFFFFF" stroke-width="10" stroke-linecap="round"/>
  <circle cx="64" cy="64" r="7" fill="#FFFFFF"/>
</svg>

